<svg xmlns="http://www.w3.org/2000/svg" width="135.735" height="21.222" viewBox="0 0 135.735 21.222">
  <g id="Group_18" data-name="Group 18" transform="translate(-475.206 -661.747)">
    <g id="phone" transform="translate(0 -131.883)">
      <text id="_083-465-1857" data-name="083-465-1857" transform="translate(508.941 808.883)" fill="#9192a4" font-size="16" font-family="CerebriSansPro-Regular, Cerebri Sans Pro" letter-spacing="-0.01em"><tspan x="0" y="0">083-465-1857</tspan></text>
    </g>
    <g id="phone-2" data-name="phone" transform="translate(474.469 660.982)">
      <g id="Group_17" data-name="Group 17" transform="translate(1 1.018)">
        <g id="Group_16" data-name="Group 16" transform="translate(0 0)">
          <path id="Path_27" data-name="Path 27" d="M19.863,17l-3.921-2.8a1.1,1.1,0,0,0-1.532.266l-1.142,1.571a.468.468,0,0,1-.626.141l-.217-.128A13.26,13.26,0,0,1,9,13.18,14.048,14.048,0,0,1,6.315,9.52L6.2,9.288a.547.547,0,0,1,.129-.672L7.793,7.395a1.283,1.283,0,0,0,.249-1.639L5.427,1.562a1.094,1.094,0,0,0-1.535-.369L2.253,2.246A2.458,2.458,0,0,0,1.2,3.71c-.59,2.3-.146,6.272,5.323,12.123,4.35,4.653,7.589,5.9,9.815,5.9a5.369,5.369,0,0,0,1.517-.212A2.339,2.339,0,0,0,19.222,20.4l.986-1.753A1.27,1.27,0,0,0,19.863,17Zm-.211,1.288-.984,1.754a1.689,1.689,0,0,1-.985.816c-1.986.583-5.455.1-10.706-5.516S1.276,6.017,1.821,3.892a1.775,1.775,0,0,1,.764-1.055l1.64-1.052a.475.475,0,0,1,.666.16l1.42,2.281L7.5,6.139a.557.557,0,0,1-.108.711L5.928,8.072a1.264,1.264,0,0,0-.3,1.551l.117.227a14.6,14.6,0,0,0,2.8,3.819,13.843,13.843,0,0,0,3.57,2.993l.212.125a1.083,1.083,0,0,0,1.45-.32l1.142-1.57a.476.476,0,0,1,.665-.115l3.92,2.8A.551.551,0,0,1,19.652,18.29Z" transform="translate(-1 -1.018)" fill="#9192a4" stroke="#9192a4" stroke-width="0.5"/>
        </g>
      </g>
    </g>
  </g>
</svg>
