<svg xmlns="http://www.w3.org/2000/svg" width="155.191" height="19.367" viewBox="0 0 155.191 19.367">
  <g id="Group_23" data-name="Group 23" transform="translate(-474.75 -711.75)">
    <g id="open-hours" transform="translate(0 -130.883)">
      <text id="_9:00am_-_5:00pm" data-name="9:00am - 5:00pm" transform="translate(508.941 857.883)" fill="#9192a4" font-size="16" font-family="CerebriSansPro-Regular, Cerebri Sans Pro" letter-spacing="-0.01em"><tspan x="0" y="0">9:00am - 5:00pm</tspan></text>
    </g>
    <g id="wall-clock" transform="translate(475 712)">
      <g id="Group_20" data-name="Group 20">
        <g id="Group_19" data-name="Group 19">
          <path id="Path_28" data-name="Path 28" d="M9.434,0a9.434,9.434,0,1,0,9.434,9.434A9.444,9.444,0,0,0,9.434,0Zm0,18.047a8.613,8.613,0,1,1,8.613-8.613A8.623,8.623,0,0,1,9.434,18.047Z" fill="#9192a4" stroke="#9192a4" stroke-width="0.5"/>
        </g>
      </g>
      <g id="Group_22" data-name="Group 22" transform="translate(9.023 2.461)">
        <g id="Group_21" data-name="Group 21">
          <path id="Path_29" data-name="Path 29" d="M239.058,74.374,235.486,70.8V64.41a.41.41,0,1,0-.82,0v6.562a.413.413,0,0,0,.12.29l3.691,3.691a.41.41,0,1,0,.581-.58Z" transform="translate(-234.666 -64)" fill="#9192a4" stroke="#9192a4" stroke-width="0.5"/>
        </g>
      </g>
    </g>
  </g>
</svg>
