<svg xmlns="http://www.w3.org/2000/svg" width="28" height="26" viewBox="0 0 28 26">
  <g id="_4" data-name="4" transform="translate(-2 -2)">
    <path id="Path_27" data-name="Path 27" d="M10.667,21a1,1,0,0,1-.707-.293L7.293,18.041a1,1,0,0,1,0-1.415L9.96,13.959a1,1,0,1,1,1.414,1.415l-1.96,1.959,1.96,1.96A1,1,0,0,1,10.667,21Zm10.666,0a1,1,0,0,1-.707-1.707l1.96-1.96-1.96-1.959a1,1,0,1,1,1.414-1.415l2.667,2.667a1,1,0,0,1,0,1.415L22.04,20.707A1,1,0,0,1,21.333,21Zm-6.667,0a1,1,0,0,1-.894-1.447l2.666-5.334a1,1,0,1,1,1.79.9l-2.666,5.333A1,1,0,0,1,14.666,21Z" fill="#fff"/>
    <path id="Path_28" data-name="Path 28" d="M29,28H3a1,1,0,0,1-1-1V3A1,1,0,0,1,3,2H29a1,1,0,0,1,1,1V27A1,1,0,0,1,29,28ZM4,26H28V4H4Z" fill="#fff"/>
    <path id="Path_29" data-name="Path 29" d="M29,10H3A1,1,0,0,1,3,8H29a1,1,0,0,1,0,2ZM20,7a1.487,1.487,0,0,1-.2-.02.636.636,0,0,1-.18-.06.782.782,0,0,1-.181-.09l-.149-.12a1,1,0,0,1,1.09-1.63.568.568,0,0,1,.17.09c.059.04.11.08.16.12a1.014,1.014,0,0,1,0,1.42,1.169,1.169,0,0,1-.33.21A1,1,0,0,1,20,7Zm3,0a1.487,1.487,0,0,1-.2-.02.636.636,0,0,1-.18-.06.782.782,0,0,1-.181-.09,1.7,1.7,0,0,1-.149-.12.933.933,0,0,1-.21-.33.943.943,0,0,1,0-.76,1.155,1.155,0,0,1,.21-.33A1,1,0,0,1,24,6a1.052,1.052,0,0,1-.29.71,1.712,1.712,0,0,1-.15.12.776.776,0,0,1-.18.09.646.646,0,0,1-.18.06A1.369,1.369,0,0,1,23,7Zm3,0a.99.99,0,0,1-1-1,.838.838,0,0,1,.08-.38,1.155,1.155,0,0,1,.21-.33,1.047,1.047,0,0,1,1.42,0,1.155,1.155,0,0,1,.21.33A1,1,0,0,1,27,6a.99.99,0,0,1-1,1Z" fill="#fff"/>
  </g>
</svg>
