<svg xmlns="http://www.w3.org/2000/svg" xmlns:xlink="http://www.w3.org/1999/xlink" width="765.3" height="213.9" viewBox="0 0 765.3 213.9">
  <defs>
    <linearGradient id="linear-gradient" x1="0.5" y1="1" x2="0.5" gradientUnits="objectBoundingBox">
      <stop offset="0" stop-color="#ee0979"/>
      <stop offset="0.527" stop-color="#f6383f"/>
      <stop offset="1" stop-color="#ff6a00"/>
    </linearGradient>
  </defs>
  <g id="kevin" transform="translate(-395.737 -499.757)">
    <path id="Gradient_Overlay" data-name="Gradient Overlay" d="M595.537,686.357c15.6,20.7,22.5,21.3,30.3,21.9v2.7h-53.4c-31.8,0-35.4-2.7-66.9-48.3-17.4-24.6-30.3-42.3-30.3-42.3l51-54c21.6-23.4,15.9-64.2-3-64.2v-2.4h99v2.4c-18.3,0-57.3,26.1-105.9,78.6C586.537,674.657,595.537,686.357,595.537,686.357Zm-114-186.6v2.4c-13.2,0-15-1.2-15,20.7v166.2c0,20.4,1.2,19.2,14.1,19.2v2.7h-84.9v-2.7c12.6,0,12.3,1.2,12.3-19.2v-166.2c0-18.6.6-20.7-12.3-20.7v-2.4Zm211.2,69.9c-36.9,0-75.6,21.3-75.6,72.3,0,40.5,31.8,71.7,71.1,71.7,37.5,0,59.4-21.3,63.3-43.5l-2.7-.6c-6,25.5-26.1,34.5-41.1,31.2-20.1-4.5-34.5-16.5-34.5-62.1h81.6C754.837,582.257,724.537,569.657,692.737,569.657Zm-19.5,66.3c0-28.8,6.9-63.6,20.7-63.6,13.5,0,17.4,25.8,17.4,63.6Zm177.9-63.6v2.4c31.2,0,29.1,33.9,24,48.6-5.1,14.4-13.5,36.6-13.5,36.6l-30.6-60s-13.2-25.2,6.9-25.2v-2.4h-93.9v2.4c5.7.6,15.9,3,24.3,18.6l59.1,120.3h16.5l33.9-89.7c15.9-37.8,23.7-49.2,43.2-49.2v-2.4Zm102.3-10.5a28.5,28.5,0,1,0-28.5-28.5A28.553,28.553,0,0,0,953.437,561.857Zm28.8,115.2v-107.4l-66.6,12.6v2.4c12.3,4.5,15.6,8.7,15.6,19.2v73.2c0,15.3-.3,28.2-11.7,31.5v2.4h75v-2.4C983.737,705.557,982.237,693.557,982.237,677.057Zm166.5-.3v-61.5c0-36-25.2-45.6-49.2-45.6-16.2,0-32.1,13.2-39.9,29.1v-29.1l-66.6,12.6v2.4c12.3,4.5,15.6,8.7,15.6,19.2v73.2c0,15.6-.3,28.2-11.7,31.5v2.4h75v-2.4c-10.8-3-12.3-15-12.3-31.5v-74.1c4.2-6.3,11.1-11.7,17.7-11.7,14.4,0,20.7,8.1,20.7,25.2v60.3c0,15.3-.6,28.5-12,31.8v2.4h75v-2.4C1150.537,705.857,1148.737,693.257,1148.737,676.757Z" fill="url(#linear-gradient)"/>
  </g>
</svg>
