<svg xmlns="http://www.w3.org/2000/svg" width="67.483" height="22.04" viewBox="0 0 67.483 22.04">
  <path id="Gradient_Overlay" data-name="Gradient Overlay" d="M390.632,482.185l6.525,7.772h-4.843l-5.017-6.148h-.812v6.148h-4.031v-21.75h4.031v12.847h.754l4.959-5.713h4.524Zm21.025,1.276H400.55a3.808,3.808,0,0,0,1.218,2.7,3.893,3.893,0,0,0,2.639.928,3.967,3.967,0,0,0,2.016-.493,2.926,2.926,0,0,0,1.262-1.508l3.712.493a6.255,6.255,0,0,1-2.581,3.465,7.869,7.869,0,0,1-4.379,1.2,9.54,9.54,0,0,1-3.248-.522,6.922,6.922,0,0,1-2.48-1.508,6.593,6.593,0,0,1-1.58-2.393,8.648,8.648,0,0,1-.551-3.176,8.45,8.45,0,0,1,.565-3.175,6.751,6.751,0,0,1,1.6-2.393,6.969,6.969,0,0,1,2.451-1.508,9.022,9.022,0,0,1,3.132-.522,9.162,9.162,0,0,1,2.914.449,6.234,6.234,0,0,1,2.335,1.378,6.459,6.459,0,0,1,1.552,2.335,8.876,8.876,0,0,1,.565,3.32Zm-7.337-5.452a3.8,3.8,0,0,0-2.451.754A3.632,3.632,0,0,0,400.637,481h7.076a3.172,3.172,0,0,0-1.073-2.2A3.474,3.474,0,0,0,404.32,478.009Zm19.082-2.668h4.379l-6.235,14.616h-3.6l-6.235-14.616h4.35l3.683,9.86Zm7.714-2.262a2.293,2.293,0,0,1-1.668-.667,2.22,2.22,0,0,1-.682-1.653,2.187,2.187,0,0,1,.682-1.624,2.293,2.293,0,0,1,1.668-.667,2.225,2.225,0,0,1,1.609.667,2.187,2.187,0,0,1,.681,1.624,2.3,2.3,0,0,1-2.291,2.32Zm-2.059,16.878V475.341h4.031v14.616ZM444.4,475.051a5.771,5.771,0,0,1,4.161,1.334,5.045,5.045,0,0,1,1.378,3.8v9.773h-4v-8.932a2.6,2.6,0,0,0-.8-2.132,3.078,3.078,0,0,0-2.016-.652,3.662,3.662,0,0,0-2.219.711,3.3,3.3,0,0,0-1.146,2.479v8.526h-4.031V475.341h4.031v1.653a5.21,5.21,0,0,1,1.972-1.435A6.733,6.733,0,0,1,444.4,475.051Z" transform="translate(-382.454 -468.207)" fill="#fff"/>
</svg>
